<svg width="32" height="32" viewBox="0 0 32 32" fill="none" xmlns="http://www.w3.org/2000/svg">
<path d="M0 8.42105C0 3.77023 3.77023 0 8.42105 0H23.5789C28.2298 0 32 3.77023 32 8.42105V23.5789C32 28.2298 28.2298 32 23.5789 32H8.42105C3.77023 32 0 28.2298 0 23.5789V8.42105Z" fill="#3C50E0"/>
<g filter="url(#filter0_d_906_46)">
<path d="M8.42114 8.42139C8.42114 7.49123 9.17519 6.73718 10.1054 6.73718C11.0355 6.73718 11.7896 7.49123 11.7896 8.42139V23.5793C11.7896 24.5095 11.0355 25.2635 10.1054 25.2635C9.17519 25.2635 8.42114 24.5095 8.42114 23.5793V8.42139Z" fill="white"/>
</g>
<g opacity="0.9" filter="url(#filter1_d_906_46)">
<path d="M14.7368 15.1578C14.7368 14.2277 15.4909 13.4736 16.421 13.4736C17.3512 13.4736 18.1052 14.2277 18.1052 15.1578V23.5789C18.1052 24.5091 17.3512 25.2631 16.421 25.2631C15.4909 25.2631 14.7368 24.5091 14.7368 23.5789V15.1578Z" fill="white"/>
</g>
<g opacity="0.7" filter="url(#filter2_d_906_46)">
<path d="M21.0522 10.947C21.0522 10.0169 21.8063 9.26282 22.7365 9.26282C23.6666 9.26282 24.4207 10.0169 24.4207 10.947V23.5786C24.4207 24.5088 23.6666 25.2628 22.7365 25.2628C21.8063 25.2628 21.0522 24.5088 21.0522 23.5786V10.947Z" fill="white"/>
</g>
<defs>
<filter id="filter0_d_906_46" x="7.42114" y="6.23718" width="5.36841" height="20.5264" filterUnits="userSpaceOnUse" color-interpolation-filters="sRGB">
<feFlood flood-opacity="0" result="BackgroundImageFix"/>
<feColorMatrix in="SourceAlpha" type="matrix" values="0 0 0 0 0 0 0 0 0 0 0 0 0 0 0 0 0 0 127 0" result="hardAlpha"/>
<feOffset dy="0.5"/>
<feGaussianBlur stdDeviation="0.5"/>
<feComposite in2="hardAlpha" operator="out"/>
<feColorMatrix type="matrix" values="0 0 0 0 0 0 0 0 0 0 0 0 0 0 0 0 0 0 0.12 0"/>
<feBlend mode="normal" in2="BackgroundImageFix" result="effect1_dropShadow_906_46"/>
<feBlend mode="normal" in="SourceGraphic" in2="effect1_dropShadow_906_46" result="shape"/>
</filter>
<filter id="filter1_d_906_46" x="13.7368" y="12.9736" width="5.36841" height="13.7894" filterUnits="userSpaceOnUse" color-interpolation-filters="sRGB">
<feFlood flood-opacity="0" result="BackgroundImageFix"/>
<feColorMatrix in="SourceAlpha" type="matrix" values="0 0 0 0 0 0 0 0 0 0 0 0 0 0 0 0 0 0 127 0" result="hardAlpha"/>
<feOffset dy="0.5"/>
<feGaussianBlur stdDeviation="0.5"/>
<feComposite in2="hardAlpha" operator="out"/>
<feColorMatrix type="matrix" values="0 0 0 0 0 0 0 0 0 0 0 0 0 0 0 0 0 0 0.12 0"/>
<feBlend mode="normal" in2="BackgroundImageFix" result="effect1_dropShadow_906_46"/>
<feBlend mode="normal" in="SourceGraphic" in2="effect1_dropShadow_906_46" result="shape"/>
</filter>
<filter id="filter2_d_906_46" x="20.0522" y="8.76282" width="5.36841" height="18" filterUnits="userSpaceOnUse" color-interpolation-filters="sRGB">
<feFlood flood-opacity="0" result="BackgroundImageFix"/>
<feColorMatrix in="SourceAlpha" type="matrix" values="0 0 0 0 0 0 0 0 0 0 0 0 0 0 0 0 0 0 127 0" result="hardAlpha"/>
<feOffset dy="0.5"/>
<feGaussianBlur stdDeviation="0.5"/>
<feComposite in2="hardAlpha" operator="out"/>
<feColorMatrix type="matrix" values="0 0 0 0 0 0 0 0 0 0 0 0 0 0 0 0 0 0 0.12 0"/>
<feBlend mode="normal" in2="BackgroundImageFix" result="effect1_dropShadow_906_46"/>
<feBlend mode="normal" in="SourceGraphic" in2="effect1_dropShadow_906_46" result="shape"/>
</filter>
</defs>
</svg>
