<svg width="176" height="32" viewBox="0 0 176 32" fill="none" xmlns="http://www.w3.org/2000/svg">
<g clip-path="url(#clip0_997_9664)">
<path d="M0 8.42105C0 3.77023 3.77023 0 8.42105 0H23.5789C28.2298 0 32 3.77023 32 8.42105V23.5789C32 28.2298 28.2298 32 23.5789 32H8.42105C3.77023 32 0 28.2298 0 23.5789V8.42105Z" fill="#3C50E0"/>
<g filter="url(#filter0_d_997_9664)">
<path d="M8.42139 8.42127C8.42139 7.49111 9.17543 6.73706 10.1056 6.73706C11.0358 6.73706 11.7898 7.49111 11.7898 8.42127V23.5792C11.7898 24.5093 11.0358 25.2634 10.1056 25.2634C9.17543 25.2634 8.42139 24.5093 8.42139 23.5792V8.42127Z" fill="white"/>
</g>
<g opacity="0.9" filter="url(#filter1_d_997_9664)">
<path d="M14.7368 15.1576C14.7368 14.2274 15.4909 13.4734 16.421 13.4734C17.3512 13.4734 18.1052 14.2274 18.1052 15.1576V23.5786C18.1052 24.5088 17.3512 25.2629 16.421 25.2629C15.4909 25.2629 14.7368 24.5088 14.7368 23.5786V15.1576Z" fill="white"/>
</g>
<g opacity="0.7" filter="url(#filter2_d_997_9664)">
<path d="M21.0522 10.9469C21.0522 10.0167 21.8063 9.2627 22.7365 9.2627C23.6666 9.2627 24.4207 10.0167 24.4207 10.9469V23.5785C24.4207 24.5086 23.6666 25.2627 22.7365 25.2627C21.8063 25.2627 21.0522 24.5086 21.0522 23.5785V10.9469Z" fill="white"/>
</g>
<path d="M49.6413 7.09091V26H45.6435V7.09091H49.6413ZM56.79 17.8011V26H52.8567V11.8182H56.6053V14.3203H56.7715C57.0854 13.4955 57.6117 12.843 58.3503 12.3629C59.089 11.8767 59.9846 11.6335 61.0371 11.6335C62.022 11.6335 62.8806 11.849 63.6131 12.2798C64.3456 12.7107 64.915 13.3262 65.3212 14.1264C65.7275 14.9205 65.9306 15.8684 65.9306 16.9702V26H61.9973V17.6719C62.0035 16.804 61.7819 16.1269 61.3326 15.6406C60.8832 15.1482 60.2646 14.902 59.4767 14.902C58.9474 14.902 58.4796 15.0159 58.0733 15.2436C57.6732 15.4714 57.3593 15.8037 57.1316 16.2408C56.91 16.6716 56.7961 17.1918 56.79 17.8011ZM80.8303 15.8622L77.2294 16.0838C77.1679 15.776 77.0355 15.4991 76.8324 15.2528C76.6293 15.0005 76.3615 14.8004 76.0291 14.6527C75.7029 14.4988 75.312 14.4219 74.8565 14.4219C74.2472 14.4219 73.7332 14.5511 73.3146 14.8097C72.8961 15.062 72.6868 15.4006 72.6868 15.8253C72.6868 16.1638 72.8222 16.45 73.093 16.6839C73.3639 16.9179 73.8286 17.1056 74.4872 17.2472L77.054 17.7642C78.4328 18.0473 79.4607 18.5028 80.1378 19.1307C80.8149 19.7585 81.1534 20.5833 81.1534 21.6051C81.1534 22.5346 80.8795 23.3501 80.3317 24.0518C79.79 24.7536 79.0452 25.3014 78.0973 25.6953C77.1555 26.0831 76.0691 26.277 74.8381 26.277C72.9607 26.277 71.465 25.8861 70.3509 25.1044C69.2429 24.3165 68.5935 23.2455 68.4027 21.8913L72.2713 21.6882C72.3883 22.2607 72.6714 22.6977 73.1207 22.9993C73.5701 23.2947 74.1456 23.4425 74.8473 23.4425C75.5367 23.4425 76.0907 23.3101 76.5092 23.0455C76.9339 22.7746 77.1494 22.4268 77.1555 22.0021C77.1494 21.6451 76.9986 21.3527 76.7031 21.125C76.4077 20.8911 75.9522 20.7126 75.3366 20.5895L72.8807 20.1001C71.4957 19.8232 70.4647 19.343 69.7876 18.6598C69.1167 17.9766 68.7812 17.1056 68.7812 16.0469C68.7812 15.1359 69.0275 14.3511 69.5199 13.6925C70.0185 13.0339 70.7171 12.526 71.6158 12.169C72.5206 11.812 73.5793 11.6335 74.7919 11.6335C76.5831 11.6335 77.9927 12.0121 79.0206 12.7692C80.0547 13.5263 80.6579 14.5573 80.8303 15.8622ZM83.6301 26V11.8182H87.5634V26H83.6301ZM85.606 9.99006C85.0212 9.99006 84.5196 9.79616 84.101 9.40838C83.6886 9.01444 83.4824 8.54356 83.4824 7.99574C83.4824 7.45407 83.6886 6.98935 84.101 6.60156C84.5196 6.20762 85.0212 6.01065 85.606 6.01065C86.1908 6.01065 86.6893 6.20762 87.1017 6.60156C87.5203 6.98935 87.7296 7.45407 87.7296 7.99574C87.7296 8.54356 87.5203 9.01444 87.1017 9.40838C86.6893 9.79616 86.1908 9.99006 85.606 9.99006ZM97.1033 31.6136C95.8292 31.6136 94.7366 31.4382 93.8256 31.0874C92.9208 30.7427 92.2006 30.2718 91.6651 29.6747C91.1296 29.0777 90.7818 28.4067 90.6218 27.6619L94.2596 27.1726C94.3704 27.4557 94.5458 27.7204 94.7859 27.9666C95.0259 28.2128 95.3429 28.4098 95.7369 28.5575C96.137 28.7114 96.6232 28.7884 97.1957 28.7884C98.0513 28.7884 98.756 28.5791 99.31 28.1605C99.8701 27.7481 100.15 27.0556 100.15 26.0831V23.4886H99.984C99.8117 23.8826 99.5531 24.255 99.2085 24.6058C98.8638 24.9567 98.4206 25.2429 97.8789 25.4645C97.3372 25.6861 96.6909 25.7969 95.94 25.7969C94.8751 25.7969 93.9057 25.5507 93.0316 25.0582C92.1637 24.5597 91.4712 23.7995 90.9542 22.7777C90.4433 21.7498 90.1879 20.451 90.1879 18.8814C90.1879 17.2749 90.4495 15.933 90.9727 14.8558C91.4959 13.7786 92.1914 12.9723 93.0593 12.4368C93.9334 11.9013 94.8905 11.6335 95.9308 11.6335C96.7248 11.6335 97.3896 11.7689 97.9251 12.0398C98.4606 12.3045 98.8915 12.6368 99.2177 13.0369C99.5501 13.4309 99.8055 13.8187 99.984 14.2003H100.132V11.8182H104.037V26.1385C104.037 27.3449 103.742 28.3544 103.151 29.1669C102.56 29.9794 101.741 30.5888 100.695 30.995C99.6547 31.4074 98.4575 31.6136 97.1033 31.6136ZM97.1864 22.8423C97.8204 22.8423 98.3559 22.6854 98.793 22.3714C99.2362 22.0514 99.5747 21.5959 99.8086 21.005C100.049 20.4079 100.169 19.6939 100.169 18.8629C100.169 18.032 100.052 17.3118 99.8178 16.7024C99.5839 16.0869 99.2454 15.6098 98.8022 15.2713C98.359 14.9328 97.8204 14.7635 97.1864 14.7635C96.5401 14.7635 95.9954 14.9389 95.5522 15.2898C95.109 15.6345 94.7736 16.1146 94.5458 16.7301C94.3181 17.3456 94.2042 18.0566 94.2042 18.8629C94.2042 19.6816 94.3181 20.3894 94.5458 20.9865C94.7797 21.5774 95.1152 22.036 95.5522 22.3622C95.9954 22.6823 96.5401 22.8423 97.1864 22.8423ZM111.1 17.8011V26H107.167V7.09091H110.99V14.3203H111.156C111.476 13.4832 111.993 12.8277 112.707 12.3537C113.421 11.8736 114.317 11.6335 115.394 11.6335C116.379 11.6335 117.237 11.849 117.97 12.2798C118.708 12.7045 119.281 13.317 119.687 14.1172C120.1 14.9112 120.303 15.8622 120.297 16.9702V26H116.363V17.6719C116.369 16.7978 116.148 16.1177 115.699 15.6314C115.255 15.1451 114.634 14.902 113.833 14.902C113.298 14.902 112.824 15.0159 112.412 15.2436C112.005 15.4714 111.685 15.8037 111.451 16.2408C111.224 16.6716 111.107 17.1918 111.1 17.8011ZM130.935 11.8182V14.7727H122.395V11.8182H130.935ZM124.334 8.42045H128.267V21.642C128.267 22.0052 128.322 22.2884 128.433 22.4915C128.544 22.6884 128.698 22.8269 128.895 22.907C129.098 22.987 129.332 23.027 129.596 23.027C129.781 23.027 129.966 23.0116 130.15 22.9808C130.335 22.9439 130.477 22.9162 130.575 22.8977L131.194 25.8246C130.997 25.8861 130.72 25.9569 130.363 26.0369C130.006 26.1231 129.572 26.1754 129.061 26.1939C128.113 26.2308 127.282 26.1046 126.568 25.8153C125.86 25.526 125.309 25.0767 124.915 24.4673C124.521 23.858 124.327 23.0885 124.334 22.1591V8.42045ZM141.124 11.8182V14.7727H132.371V11.8182H141.124ZM134.374 26V10.7933C134.374 9.76539 134.575 8.91288 134.975 8.23579C135.381 7.55871 135.935 7.0509 136.637 6.71236C137.338 6.37382 138.135 6.20454 139.028 6.20454C139.631 6.20454 140.182 6.25071 140.681 6.34304C141.185 6.43537 141.561 6.51847 141.807 6.59233L141.105 9.54688C140.951 9.49763 140.761 9.45147 140.533 9.40838C140.311 9.36529 140.084 9.34375 139.85 9.34375C139.271 9.34375 138.868 9.47917 138.64 9.75C138.412 10.0147 138.298 10.3871 138.298 10.8672V26H134.374ZM152.621 19.9616V11.8182H156.554V26H152.778V23.424H152.63C152.31 24.255 151.778 24.9228 151.033 25.4276C150.294 25.9323 149.393 26.1847 148.328 26.1847C147.38 26.1847 146.546 25.9692 145.826 25.5384C145.105 25.1075 144.542 24.495 144.136 23.701C143.736 22.907 143.533 21.956 143.527 20.848V11.8182H147.46V20.1463C147.466 20.9834 147.691 21.6451 148.134 22.1314C148.577 22.6177 149.171 22.8608 149.916 22.8608C150.39 22.8608 150.833 22.7531 151.245 22.5376C151.658 22.3161 151.99 21.9898 152.243 21.5589C152.501 21.1281 152.627 20.5956 152.621 19.9616ZM163.634 7.09091V26H159.7V7.09091H163.634Z" fill="white"/>
</g>
<defs>
<filter id="filter0_d_997_9664" x="7.42139" y="6.23706" width="5.36841" height="20.5264" filterUnits="userSpaceOnUse" color-interpolation-filters="sRGB">
<feFlood flood-opacity="0" result="BackgroundImageFix"/>
<feColorMatrix in="SourceAlpha" type="matrix" values="0 0 0 0 0 0 0 0 0 0 0 0 0 0 0 0 0 0 127 0" result="hardAlpha"/>
<feOffset dy="0.5"/>
<feGaussianBlur stdDeviation="0.5"/>
<feComposite in2="hardAlpha" operator="out"/>
<feColorMatrix type="matrix" values="0 0 0 0 0 0 0 0 0 0 0 0 0 0 0 0 0 0 0.12 0"/>
<feBlend mode="normal" in2="BackgroundImageFix" result="effect1_dropShadow_997_9664"/>
<feBlend mode="normal" in="SourceGraphic" in2="effect1_dropShadow_997_9664" result="shape"/>
</filter>
<filter id="filter1_d_997_9664" x="13.7368" y="12.9734" width="5.36841" height="13.7896" filterUnits="userSpaceOnUse" color-interpolation-filters="sRGB">
<feFlood flood-opacity="0" result="BackgroundImageFix"/>
<feColorMatrix in="SourceAlpha" type="matrix" values="0 0 0 0 0 0 0 0 0 0 0 0 0 0 0 0 0 0 127 0" result="hardAlpha"/>
<feOffset dy="0.5"/>
<feGaussianBlur stdDeviation="0.5"/>
<feComposite in2="hardAlpha" operator="out"/>
<feColorMatrix type="matrix" values="0 0 0 0 0 0 0 0 0 0 0 0 0 0 0 0 0 0 0.12 0"/>
<feBlend mode="normal" in2="BackgroundImageFix" result="effect1_dropShadow_997_9664"/>
<feBlend mode="normal" in="SourceGraphic" in2="effect1_dropShadow_997_9664" result="shape"/>
</filter>
<filter id="filter2_d_997_9664" x="20.0522" y="8.7627" width="5.3685" height="18" filterUnits="userSpaceOnUse" color-interpolation-filters="sRGB">
<feFlood flood-opacity="0" result="BackgroundImageFix"/>
<feColorMatrix in="SourceAlpha" type="matrix" values="0 0 0 0 0 0 0 0 0 0 0 0 0 0 0 0 0 0 127 0" result="hardAlpha"/>
<feOffset dy="0.5"/>
<feGaussianBlur stdDeviation="0.5"/>
<feComposite in2="hardAlpha" operator="out"/>
<feColorMatrix type="matrix" values="0 0 0 0 0 0 0 0 0 0 0 0 0 0 0 0 0 0 0.12 0"/>
<feBlend mode="normal" in2="BackgroundImageFix" result="effect1_dropShadow_997_9664"/>
<feBlend mode="normal" in="SourceGraphic" in2="effect1_dropShadow_997_9664" result="shape"/>
</filter>
<clipPath id="clip0_997_9664">
<rect width="176" height="32" fill="white"/>
</clipPath>
</defs>
</svg>
